Patient4_TMGait_0pt6_02_left_31_GRF.mot
version=1
nRows=26
nColumns=19
inDegrees=no
endheader
time	F1x	F1y	F1z	M1x	M1y	M1z	F2x	F2y	F2z	M2x	M2y	M2z	EC1x	EC1y	EC1z	EC2x	EC2y	EC2z
37.9	17.5657	12.7636	6.0347	-4.0424	-3.9735	-4.4271	-45.0127	770.7843	-72.7356	300.7044	104.6632	873.3924	-0.0592	0.0182	-0.0073	-0.0462	0.0165	0.9585
37.912	11.8741	9.4398	4.2519	-3.0599	-2.9129	-1.9464	-40.891	765.6695	-73.2338	298.3488	102.2792	866.1342	-0.0592	0.0182	-0.0073	-0.0462	0.0165	0.9585
37.924	7.0735	6.6513	2.6867	-2.2146	-1.9369	0.15187	-36.6898	758.7393	-73.255	295.3369	99.3773	856.0175	-0.0592	0.0182	-0.0073	-0.0462	0.0165	0.9585
37.936	3.3867	4.5786	1.4522	-1.5683	-1.1445	1.8226	-32.7018	750.6165	-72.8555	291.9313	96.1885	843.8075	-0.0592	0.0182	-0.0073	-0.0462	0.0165	0.9585
37.948	0.84619	3.195	0.57386	-1.1238	-0.55514	3.0255	-29.0843	742.1886	-72.1436	288.4815	92.9144	830.6308	-0.0592	0.0182	-0.0073	-0.0462	0.0165	0.9585
37.96	-0.75858	2.4079	0.0064925	-0.85797	-0.15811	3.8572	-25.9505	734.3489	-71.2711	285.3288	89.7559	817.6442	-0.0592	0.0182	-0.0073	-0.0462	0.0165	0.9585
37.972	-1.6184	2.0221	-0.30967	-0.71657	0.076652	4.3223	-23.2759	727.8025	-70.3361	282.742	86.8085	805.7507	-0.0592	0.0182	-0.0073	-0.0462	0.0165	0.9585
37.984	-1.9913	1.8673	-0.44046	-0.64594	0.17108	4.4992	-20.9699	722.9961	-69.4458	280.8884	84.1392	795.5281	-0.0592	0.0182	-0.0073	-0.0462	0.0165	0.9585
37.996	-2.0444	1.7339	-0.43837	-0.58233	0.1552	4.3421	-18.8527	720.0725	-68.6067	279.8286	81.6805	787.1427	-0.0592	0.0182	-0.0073	-0.0462	0.0165	0.9585
38.008	-1.9578	1.4447	-0.34706	-0.46822	0.047501	3.8142	-16.7234	718.9713	-67.8309	279.5404	79.3554	780.5186	-0.0592	0.0182	-0.0073	-0.0462	0.0165	0.9585
38.02	-1.8096	0.81781	-0.20231	-0.24561	-0.12401	2.7921	-14.3578	719.437	-67.0677	279.9339	77.019	775.3266	-0.0592	0.0182	-0.0073	-0.0462	0.0165	0.9585
38.032	-1.6712	-0.2994	-0.038649	0.13682	-0.32762	1.1709	-11.6045	721.156	-66.3083	280.8875	74.5866	771.1932	-0.0592	0.0182	-0.0073	-0.0462	0.0165	0.9585
38.044	-1.5402	-2.0012	0.1105	0.71117	-0.51392	-1.1346	-8.3161	723.7904	-65.5282	282.2655	71.9694	767.7149	-0.0592	0.0182	-0.0073	-0.0462	0.0165	0.9585
38.056	-1.3934	-4.2853	0.20828	1.476	-0.62151	-4.0964	-4.4529	726.9964	-64.7425	283.9207	69.1553	764.546	-0.0592	0.0182	-0.0073	-0.0462	0.0165	0.9585
38.068	-1.169	-6.9833	0.20953	2.3727	-0.5736	-7.5169	-0.0038579	730.4098	-63.9504	285.6947	66.1357	761.3482	-0.0592	0.0182	-0.0073	-0.0462	0.0165	0.9585
38.08	-0.78999	-9.6952	0.052446	3.2643	-0.27323	-10.9258	4.8957	733.6527	-63.1669	287.4107	62.967	757.8507	-0.0592	0.0182	-0.0073	-0.0462	0.0165	0.9585
38.092	-0.16527	-11.6704	-0.33443	3.8943	0.38995	-13.4241	10.0606	736.2389	-62.385	288.8484	59.7111	753.7087	-0.0592	0.0182	-0.0073	-0.0462	0.0165	0.9585
38.104	0.80312	-11.7287	-1.0214	3.8603	1.5291	-13.6107	15.2122	737.62	-61.6141	289.7508	56.4799	748.5729	-0.0592	0.0182	-0.0073	-0.0462	0.0165	0.9585
38.116	2.1767	-8.1842	-2.0718	2.5918	3.2345	-9.4738	20.064	737.1601	-60.8517	289.8308	53.3773	742.0052	-0.0592	0.0182	-0.0073	-0.0462	0.0165	0.9585
38.128	3.9738	1.1289	-3.5003	-0.64143	5.5297	1.5453	24.3191	734.2294	-60.0977	288.8073	50.5109	733.5892	-0.0592	0.0182	-0.0073	-0.0462	0.0165	0.9585
38.14	6.0766	18.7348	-5.2562	-6.6869	8.3097	22.4615	27.7769	728.2468	-59.3393	286.4344	47.9506	722.9135	-0.0592	0.0182	-0.0073	-0.0462	0.0165	0.9585
38.152	8.2202	47.1245	-7.1372	-16.3787	11.2386	56.2439	30.3109	718.7056	-58.5361	282.5137	45.7149	709.5834	-0.0592	0.0182	-0.0073	-0.0462	0.0165	0.9585
38.164	9.8583	88.1232	-8.7576	-30.3097	13.6533	105.1037	31.9345	705.1271	-57.6201	276.8815	43.7507	693.1444	-0.0592	0.0182	-0.0073	-0.0462	0.0165	0.9585
38.176	10.1426	141.7879	-9.4628	-48.4625	14.4679	169.1336	32.7717	687.0213	-56.4451	269.3878	41.8898	673.0644	-0.0592	0.0182	-0.0073	-0.0462	0.0165	0.9585
38.188	7.8496	205.2613	-8.3941	-69.8103	12.2523	244.9527	32.9956	663.8019	-54.8338	259.8587	39.9143	648.6678	-0.0592	0.0182	-0.0073	-0.0462	0.0165	0.9585
38.2	2.2682	271.9098	-4.7521	-92.0577	5.8381	324.6207	32.7506	634.8777	-52.5758	248.1223	37.5859	619.263	-0.0592	0.0182	-0.0073	-0.0462	0.0165	0.9585
